<svg width="67" height="67" viewBox="0 0 67 67" fill="none" xmlns="http://www.w3.org/2000/svg">
<rect x="0.5" y="1.12988" width="66" height="64.7115" rx="12.3846" fill="#3E371F"/>
<rect x="0.5" y="1.12988" width="66" height="64.7115" rx="12.3846" fill="url(#paint0_linear_1341_1852)"/>
<rect x="0.5" y="1.12988" width="66" height="64.7115" rx="12.3846" fill="url(#paint1_linear_1341_1852)" fill-opacity="0.2"/>
<rect x="0.5" y="1.12988" width="66" height="64.7115" rx="12.3846" stroke="url(#paint2_linear_1341_1852)"/>
<path d="M27.9176 40.9896C27.7325 40.9896 27.555 40.9161 27.4241 40.7852C27.2933 40.6543 27.2197 40.4768 27.2197 40.2917C27.2197 40.1066 27.2933 39.929 27.4241 39.7982C27.555 39.6673 27.7325 39.5938 27.9176 39.5938C28.1027 39.5938 28.2803 39.6673 28.4111 39.7982C28.542 39.929 28.6156 40.1066 28.6156 40.2917C28.6156 40.4768 28.542 40.6543 28.4111 40.7852C28.2803 40.9161 28.1027 40.9896 27.9176 40.9896ZM33.501 40.9896C33.3159 40.9896 33.1384 40.9161 33.0075 40.7852C32.8766 40.6543 32.8031 40.4768 32.8031 40.2917C32.8031 40.1066 32.8766 39.929 33.0075 39.7982C33.1384 39.6673 33.3159 39.5938 33.501 39.5938C33.6861 39.5938 33.8636 39.6673 33.9945 39.7982C34.1254 39.929 34.1989 40.1066 34.1989 40.2917C34.1989 40.4768 34.1254 40.6543 33.9945 40.7852C33.8636 40.9161 33.6861 40.9896 33.501 40.9896ZM39.0843 40.9896C38.8992 40.9896 38.7217 40.9161 38.5908 40.7852C38.4599 40.6543 38.3864 40.4768 38.3864 40.2917C38.3864 40.1066 38.4599 39.929 38.5908 39.7982C38.7217 39.6673 38.8992 39.5938 39.0843 39.5938C39.2694 39.5938 39.4469 39.6673 39.5778 39.7982C39.7087 39.929 39.7822 40.1066 39.7822 40.2917C39.7822 40.4768 39.7087 40.6543 39.5778 40.7852C39.4469 40.9161 39.2694 40.9896 39.0843 40.9896Z" fill="black" stroke="black" stroke-width="2.5" stroke-linecap="round" stroke-linejoin="round"/>
<path d="M19.5439 41.6868L22.3356 40.291M47.4606 41.6868L44.6689 40.291M46.0648 46.5723H20.9398C20.5696 46.5723 20.2145 46.4252 19.9528 46.1634C19.691 45.9017 19.5439 45.5466 19.5439 45.1764V22.8431C19.5439 22.4729 19.691 22.1179 19.9528 21.8561C20.2145 21.5943 20.5696 21.4473 20.9398 21.4473H46.0648C46.435 21.4473 46.79 21.5943 47.0518 21.8561C47.3136 22.1179 47.4606 22.4729 47.4606 22.8431V45.1764C47.4606 45.5466 47.3136 45.9017 47.0518 46.1634C46.79 46.4252 46.435 46.5723 46.0648 46.5723Z" stroke="black" stroke-width="2.5" stroke-linecap="round" stroke-linejoin="round"/>
<defs>
<linearGradient id="paint0_linear_1341_1852" x1="33.5" y1="0.629883" x2="33.5" y2="66.3414" gradientUnits="userSpaceOnUse">
<stop stop-color="#EFCC3A"/>
<stop offset="1" stop-color="#DE9E15"/>
</linearGradient>
<linearGradient id="paint1_linear_1341_1852" x1="33.5" y1="0.629883" x2="33.5" y2="66.3414" gradientUnits="userSpaceOnUse">
<stop stop-color="white" stop-opacity="0"/>
<stop offset="1"/>
</linearGradient>
<linearGradient id="paint2_linear_1341_1852" x1="33.5" y1="0.629883" x2="33.5" y2="66.3414" gradientUnits="userSpaceOnUse">
<stop stop-color="#F2D15B"/>
<stop offset="1" stop-color="#666666" stop-opacity="0"/>
</linearGradient>
</defs>
</svg>
