<svg width="67" height="67" viewBox="0 0 67 67" fill="none" xmlns="http://www.w3.org/2000/svg">
<rect x="0.5" y="1.12988" width="66" height="64.7115" rx="12.3846" fill="#3E371F"/>
<rect x="0.5" y="1.12988" width="66" height="64.7115" rx="12.3846" fill="url(#paint0_linear_1341_1964)"/>
<rect x="0.5" y="1.12988" width="66" height="64.7115" rx="12.3846" fill="url(#paint1_linear_1341_1964)" fill-opacity="0.2"/>
<rect x="0.5" y="1.12988" width="66" height="64.7115" rx="12.3846" stroke="url(#paint2_linear_1341_1964)"/>
<path d="M20.3359 18.2061C20.4849 18.2087 20.6315 18.2422 20.7676 18.3027C20.9017 18.3625 21.0233 18.4479 21.124 18.5547L48.4453 45.876L48.4473 45.8789C48.6495 46.0885 48.7615 46.3689 48.7588 46.6602C48.7561 46.9513 48.6395 47.2297 48.4336 47.4355C48.2276 47.6414 47.9485 47.7584 47.6572 47.7607C47.3661 47.7631 47.0853 47.6506 46.876 47.4482L46.874 47.4463L39.749 40.3223C39.3736 41.0572 38.8153 41.6849 38.1221 42.1387C37.348 42.6452 36.4426 42.9152 35.5176 42.915H23.9814C22.7208 42.915 21.5116 42.4139 20.6201 41.5225C19.7287 40.631 19.2275 39.4218 19.2275 38.1611V27.8398C19.2274 26.7414 19.6086 25.6769 20.3047 24.8271C20.9234 24.0719 21.7573 23.527 22.6914 23.2637L19.5537 20.125V20.124C19.4471 20.0234 19.3614 19.9025 19.3018 19.7686C19.2412 19.6325 19.2078 19.4858 19.2051 19.3369C19.2024 19.1879 19.2304 19.0396 19.2861 18.9014C19.342 18.7631 19.4248 18.6367 19.5303 18.5312C19.6357 18.4258 19.7621 18.343 19.9004 18.2871C20.0386 18.2313 20.1869 18.2034 20.3359 18.2061ZM35.5176 23.0859C36.7782 23.086 37.9875 23.5871 38.8789 24.4785C39.7702 25.37 40.2705 26.5792 40.2705 27.8398V28.0645L45.1201 24.7158C46.6615 23.6501 48.7655 24.7558 48.7656 26.6289V39.3672C48.7655 40.7707 47.5864 41.7398 46.3496 41.6934L46.2715 41.6904L40.3506 35.7695L40.6055 35.4639L46.3818 39.4521C46.3973 39.4628 46.4158 39.4695 46.4346 39.4707C46.4534 39.4718 46.4725 39.4678 46.4893 39.459C46.5059 39.4503 46.5195 39.4369 46.5293 39.4209C46.539 39.4048 46.5449 39.3861 46.5449 39.3672V26.6289L46.541 26.6006C46.5385 26.5917 46.5341 26.5832 46.5293 26.5752C46.5196 26.5591 46.5059 26.5459 46.4893 26.5371C46.4725 26.5283 46.4534 26.5243 46.4346 26.5254C46.4158 26.5266 46.3973 26.5332 46.3818 26.5439L40.2705 30.7627V35.6895L39.9297 35.3486L38.1084 33.5264L38.0498 33.4678V27.8398C38.0498 27.1683 37.7825 26.5237 37.3076 26.0488C36.8328 25.5742 36.1889 25.3077 35.5176 25.3076H29.8887L27.667 23.0859H35.5176ZM23.9814 25.3076C23.3101 25.3076 22.6662 25.5742 22.1914 26.0488C21.7165 26.5237 21.4492 27.1683 21.4492 27.8398V38.1611C21.4492 38.8327 21.7166 39.4763 22.1914 39.9512C22.6662 40.426 23.3099 40.6933 23.9814 40.6934H35.5176C36.1321 40.6933 36.7256 40.4698 37.1875 40.0645C37.6257 39.6799 37.9138 39.1559 38.0107 38.583L24.7363 25.3076H23.9814Z" fill="black" stroke="black" stroke-width="0.4"/>
<defs>
<linearGradient id="paint0_linear_1341_1964" x1="33.5" y1="0.629883" x2="33.5" y2="66.3414" gradientUnits="userSpaceOnUse">
<stop stop-color="#EFCC3A"/>
<stop offset="1" stop-color="#DE9E15"/>
</linearGradient>
<linearGradient id="paint1_linear_1341_1964" x1="33.5" y1="0.629883" x2="33.5" y2="66.3414" gradientUnits="userSpaceOnUse">
<stop stop-color="white" stop-opacity="0"/>
<stop offset="1"/>
</linearGradient>
<linearGradient id="paint2_linear_1341_1964" x1="33.5" y1="0.629883" x2="33.5" y2="66.3414" gradientUnits="userSpaceOnUse">
<stop stop-color="#F2D15B"/>
<stop offset="1" stop-color="#666666" stop-opacity="0"/>
</linearGradient>
</defs>
</svg>
