<svg width="67" height="66" viewBox="0 0 67 66" fill="none" xmlns="http://www.w3.org/2000/svg">
<rect x="0.5" y="0.629883" width="66" height="64.7115" rx="12.3846" fill="#3E371F"/>
<rect x="0.5" y="0.629883" width="66" height="64.7115" rx="12.3846" fill="url(#paint0_linear_1341_2105)"/>
<rect x="0.5" y="0.629883" width="66" height="64.7115" rx="12.3846" fill="url(#paint1_linear_1341_2105)" fill-opacity="0.2"/>
<rect x="0.5" y="0.629883" width="66" height="64.7115" rx="12.3846" stroke="url(#paint2_linear_1341_2105)"/>
<path d="M29.0095 19.602V18.426C29.0095 18.1142 29.1334 17.8151 29.3539 17.5945C29.5745 17.374 29.8736 17.2501 30.1855 17.2501C30.4973 17.2501 30.7964 17.374 31.017 17.5945C31.2375 17.8151 31.3614 18.1142 31.3614 18.426V19.602C31.3614 19.9139 31.2375 20.213 31.017 20.4335C30.7964 20.654 30.4973 20.7779 30.1855 20.7779C29.8736 20.7779 29.5745 20.654 29.3539 20.4335C29.1334 20.213 29.0095 19.9139 29.0095 19.602ZM18.426 31.3614H19.602C19.9139 31.3614 20.213 31.2375 20.4335 31.017C20.654 30.7964 20.7779 30.4973 20.7779 30.1855C20.7779 29.8736 20.654 29.5745 20.4335 29.3539C20.213 29.1334 19.9139 29.0095 19.602 29.0095H18.426C18.1142 29.0095 17.8151 29.1334 17.5945 29.3539C17.374 29.5745 17.2501 29.8736 17.2501 30.1855C17.2501 30.4973 17.374 30.7964 17.5945 31.017C17.8151 31.2375 18.1142 31.3614 18.426 31.3614ZM34.363 21.8304C34.5012 21.8996 34.6517 21.9409 34.8058 21.9519C34.96 21.9629 35.1148 21.9434 35.2614 21.8945C35.408 21.8457 35.5436 21.7684 35.6603 21.6671C35.777 21.5658 35.8727 21.4424 35.9417 21.3042L37.1176 18.9523C37.2572 18.6733 37.2802 18.3504 37.1817 18.0545C37.0831 17.7585 36.8711 17.5139 36.5921 17.3743C36.3132 17.2347 35.9902 17.2117 35.6943 17.3102C35.3984 17.4088 35.1537 17.6209 35.0142 17.8998L33.8382 20.2517C33.769 20.3898 33.7276 20.5402 33.7165 20.6943C33.7054 20.8484 33.7247 21.0032 33.7735 21.1498C33.8222 21.2964 33.8994 21.432 34.0005 21.5487C34.1017 21.6655 34.2248 21.7612 34.363 21.8304ZM20.2517 33.8382L17.8998 35.0142C17.6209 35.1537 17.4088 35.3984 17.3102 35.6943C17.2117 35.9902 17.2347 36.3132 17.3743 36.5921C17.5139 36.8711 17.7585 37.0831 18.0545 37.1817C18.3504 37.2802 18.6733 37.2572 18.9523 37.1176L21.3042 35.9417C21.4423 35.8726 21.5654 35.7769 21.6666 35.6602C21.7677 35.5435 21.8449 35.4081 21.8937 35.2615C21.9425 35.115 21.962 34.9603 21.951 34.8063C21.94 34.6522 21.8988 34.5018 21.8297 34.3637C21.7605 34.2256 21.6649 34.1025 21.5482 34.0013C21.4315 33.9001 21.296 33.823 21.1495 33.7742C21.003 33.7254 20.8483 33.7059 20.6942 33.7169C20.5402 33.7279 20.3898 33.7691 20.2517 33.8382ZM48.3111 43.1208C48.5296 43.3392 48.7029 43.5985 48.8211 43.8839C48.9393 44.1693 49.0002 44.4751 49.0002 44.784C49.0002 45.0929 48.9393 45.3988 48.8211 45.6842C48.7029 45.9696 48.5296 46.2289 48.3111 46.4473L46.4473 48.3111C46.2289 48.5296 45.9696 48.7029 45.6842 48.8211C45.3988 48.9393 45.0929 49.0002 44.784 49.0002C44.4751 49.0002 44.1693 48.9393 43.8839 48.8211C43.5985 48.7029 43.3392 48.5296 43.1208 48.3111L35.5801 40.7689L32.9783 47.5438C32.9783 47.5585 32.9666 47.5747 32.9592 47.5909C32.7792 48.0105 32.4798 48.3678 32.0982 48.6185C31.7166 48.8692 31.2697 49.002 30.8131 49.0005H30.697C30.2208 48.9804 29.7624 48.8145 29.3835 48.5253C29.0047 48.2361 28.7238 47.8376 28.5788 47.3836L20.8955 23.853C20.7636 23.4415 20.7477 23.0016 20.8494 22.5816C20.9511 22.1616 21.1666 21.7777 21.4721 21.4721C21.7777 21.1666 22.1616 20.9511 22.5816 20.8494C23.0016 20.7477 23.4415 20.7636 23.853 20.8955L47.3836 28.5788C47.8333 28.7293 48.2271 29.0121 48.5132 29.3903C48.7992 29.7685 48.9643 30.2244 48.9867 30.6981C49.0092 31.1718 48.8878 31.6411 48.6387 32.0447C48.3896 32.4482 48.0244 32.767 47.5909 32.9592L47.5438 32.9783L40.7689 35.5786L48.3111 43.1208ZM46.6486 44.7833L39.1064 37.2411C38.835 36.9701 38.6339 36.6369 38.5207 36.2704C38.4076 35.9039 38.3858 35.5153 38.4572 35.1384C38.5287 34.7615 38.6912 34.4079 38.9307 34.1082C39.1702 33.8086 39.4793 33.5721 39.8311 33.4193L39.8782 33.3987L46.6325 30.8058L23.1298 23.1298L30.8028 46.6281L33.3972 39.8664C33.3972 39.8502 33.409 39.8341 33.4164 39.8179C33.5692 39.4663 33.8057 39.1575 34.1051 38.9182C34.4046 38.6789 34.7581 38.5164 35.1347 38.445C35.2802 38.418 35.4277 38.4042 35.5757 38.4038C36.1988 38.4045 36.7962 38.6524 37.2367 39.0932L44.7833 46.6486L46.6486 44.7833Z" fill="black"/>
<defs>
<linearGradient id="paint0_linear_1341_2105" x1="33.5" y1="0.129883" x2="33.5" y2="65.8414" gradientUnits="userSpaceOnUse">
<stop stop-color="#EFCC3A"/>
<stop offset="1" stop-color="#DE9E15"/>
</linearGradient>
<linearGradient id="paint1_linear_1341_2105" x1="33.5" y1="0.129883" x2="33.5" y2="65.8414" gradientUnits="userSpaceOnUse">
<stop stop-color="white" stop-opacity="0"/>
<stop offset="1"/>
</linearGradient>
<linearGradient id="paint2_linear_1341_2105" x1="33.5" y1="0.129883" x2="33.5" y2="65.8414" gradientUnits="userSpaceOnUse">
<stop stop-color="#F2D15B"/>
<stop offset="1" stop-color="#666666" stop-opacity="0"/>
</linearGradient>
</defs>
</svg>
