<svg width="37" height="37" viewBox="0 0 37 37" fill="none" xmlns="http://www.w3.org/2000/svg">
<g clip-path="url(#clip0_1057_2817)">
<rect y="0.0888672" width="36.29" height="36.29" rx="9.55" fill="url(#paint0_linear_1057_2817)"/>
<g filter="url(#filter0_f_1057_2817)">
<circle cx="18.0907" cy="0.279145" r="2.94614" fill="white"/>
</g>
<g clip-path="url(#clip1_1057_2817)">
<path d="M23.0812 15.3271H29.5388C30.1489 15.3271 30.6434 15.8217 30.6434 16.4318V22.3138C30.6434 24.556 28.8258 26.3737 26.5836 26.3737H26.5644C24.3222 26.374 22.5042 24.5566 22.5039 22.3143C22.5039 22.3142 22.5039 22.314 22.5039 22.3138V15.9045C22.5039 15.5856 22.7624 15.3271 23.0812 15.3271Z" fill="#5059C9"/>
<path d="M27.4483 14.1642C28.8932 14.1642 30.0646 12.9929 30.0646 11.5479C30.0646 10.103 28.8932 8.93164 27.4483 8.93164C26.0034 8.93164 24.832 10.103 24.832 11.5479C24.832 12.9929 26.0034 14.1642 27.4483 14.1642Z" fill="#5059C9"/>
<path d="M19.3064 14.1646C21.3935 14.1646 23.0855 12.4726 23.0855 10.3855C23.0855 8.29839 21.3935 6.60645 19.3064 6.60645C17.2193 6.60645 15.5273 8.29839 15.5273 10.3855C15.5273 12.4726 17.2193 14.1646 19.3064 14.1646Z" fill="#7B83EB"/>
<path d="M24.346 15.3271H13.6866C13.0838 15.3421 12.607 15.8423 12.621 16.4452V23.1539C12.5368 26.7715 15.3988 29.7735 19.0163 29.862C22.6338 29.7735 25.4958 26.7715 25.4117 23.1539V16.4452C25.4256 15.8423 24.9488 15.3421 24.346 15.3271Z" fill="#7B83EB"/>
<path opacity="0.1" d="M19.5981 15.3271V24.7283C19.5953 25.1594 19.334 25.5467 18.9354 25.7109C18.8084 25.7646 18.672 25.7922 18.5342 25.7923H13.133C13.0575 25.6004 12.9877 25.4085 12.9295 25.2109C12.726 24.5437 12.6222 23.8502 12.6214 23.1527V16.4434C12.6074 15.8416 13.0835 15.3421 13.6853 15.3271H19.5981Z" fill="black"/>
<path opacity="0.2" d="M19.0168 15.3271V25.3097C19.0167 25.4475 18.9891 25.5839 18.9354 25.7109C18.7712 26.1095 18.3839 26.3708 17.9528 26.3737H13.4063C13.3074 26.1818 13.2144 25.9899 13.133 25.7923C13.0516 25.5946 12.9877 25.4085 12.9295 25.2109C12.726 24.5438 12.6222 23.8502 12.6214 23.1527V16.4434C12.6074 15.8416 13.0835 15.3421 13.6853 15.3271H19.0168Z" fill="black"/>
<path opacity="0.2" d="M19.0167 15.3271V24.1469C19.0123 24.7327 18.5386 25.2064 17.9528 25.2109H12.9295C12.726 24.5438 12.6222 23.8502 12.6214 23.1527V16.4434C12.6074 15.8416 13.0835 15.3421 13.6853 15.3271H19.0167Z" fill="black"/>
<path opacity="0.2" d="M18.4353 15.3271V24.1469C18.4309 24.7327 17.9572 25.2064 17.3714 25.2109H12.9295C12.726 24.5438 12.6222 23.8502 12.6214 23.1527V16.4434C12.6074 15.8416 13.0835 15.3421 13.6853 15.3271H18.4353Z" fill="black"/>
<path opacity="0.1" d="M19.5979 12.3218V14.1532C19.4991 14.159 19.4061 14.1648 19.3072 14.1648C19.2084 14.1648 19.1154 14.159 19.0165 14.1532C18.8203 14.1401 18.6257 14.109 18.4351 14.0601C17.2578 13.7813 16.2851 12.9556 15.8189 11.8392C15.7386 11.6517 15.6763 11.457 15.6328 11.2578H18.534C19.1207 11.26 19.5957 11.7351 19.5979 12.3218Z" fill="black"/>
<path opacity="0.2" d="M19.016 12.9028V14.1528C18.8198 14.1398 18.6252 14.1087 18.4346 14.0598C17.2573 13.781 16.2846 12.9553 15.8184 11.8389H17.9521C18.5388 11.8411 19.0138 12.3161 19.016 12.9028Z" fill="black"/>
<path opacity="0.2" d="M19.016 12.9028V14.1528C18.8198 14.1398 18.6252 14.1087 18.4346 14.0598C17.2573 13.781 16.2846 12.9553 15.8184 11.8389H17.9521C18.5388 11.8411 19.0138 12.3161 19.016 12.9028Z" fill="black"/>
<path opacity="0.2" d="M18.4346 12.9028V14.0598C17.2573 13.781 16.2846 12.9553 15.8184 11.8389H17.3707C17.9574 11.8411 18.4324 12.3161 18.4346 12.9028Z" fill="black"/>
<path d="M6.71022 11.8389H17.3695C17.9581 11.8389 18.4352 12.316 18.4352 12.9046V23.5639C18.4352 24.1524 17.9581 24.6296 17.3695 24.6296H6.71022C6.12165 24.6296 5.64453 24.1524 5.64453 23.5639V12.9046C5.64453 12.316 6.12166 11.8389 6.71022 11.8389Z" fill="url(#paint1_linear_1057_2817)"/>
<path d="M14.8437 15.8961H12.7129V21.6984H11.3553V15.8961H9.23438V14.7705H14.8437V15.8961Z" fill="white"/>
</g>
</g>
<defs>
<filter id="filter0_f_1057_2817" x="4.68728" y="-13.1242" width="26.8071" height="26.8071" filterUnits="userSpaceOnUse" color-interpolation-filters="sRGB">
<feFlood flood-opacity="0" result="BackgroundImageFix"/>
<feBlend mode="normal" in="SourceGraphic" in2="BackgroundImageFix" result="shape"/>
<feGaussianBlur stdDeviation="5.22862" result="effect1_foregroundBlur_1057_2817"/>
</filter>
<linearGradient id="paint0_linear_1057_2817" x1="18.145" y1="0.0888672" x2="18.145" y2="36.3789" gradientUnits="userSpaceOnUse">
<stop stop-color="#EDEEFF"/>
<stop offset="1" stop-color="white"/>
</linearGradient>
<linearGradient id="paint1_linear_1057_2817" x1="7.86653" y1="11.0062" x2="16.2132" y2="25.4623" gradientUnits="userSpaceOnUse">
<stop stop-color="#5A62C3"/>
<stop offset="0.5" stop-color="#4D55BD"/>
<stop offset="1" stop-color="#3940AB"/>
</linearGradient>
<clipPath id="clip0_1057_2817">
<rect y="0.0888672" width="36.29" height="36.29" rx="9.55" fill="white"/>
</clipPath>
<clipPath id="clip1_1057_2817">
<rect width="25" height="23.2558" fill="white" transform="translate(5.64453 6.60645)"/>
</clipPath>
</defs>
</svg>
