<svg width="37" height="37" viewBox="0 0 37 37" fill="none" xmlns="http://www.w3.org/2000/svg">
<g clip-path="url(#clip0_1057_2657)">
<rect y="0.234375" width="36.29" height="36.29" rx="9.55" fill="url(#paint0_linear_1057_2657)"/>
<g filter="url(#filter0_f_1057_2657)">
<circle cx="18.0907" cy="0.424653" r="2.94614" fill="white"/>
</g>
<g filter="url(#filter1_di_1057_2657)">
<path d="M10.0688 21.4497H5.09569C4.92541 21.4501 4.75886 21.3998 4.61724 21.3053C4.47562 21.2107 4.36534 21.0761 4.30045 20.9187C4.23507 20.7618 4.2178 20.589 4.25082 20.4222C4.28385 20.2554 4.36568 20.1022 4.48593 19.982L7.93236 16.5356H5.46317C5.13728 16.5356 4.82473 16.4062 4.59428 16.1757C4.36384 15.9453 4.23438 15.6327 4.23438 15.3068H8.8215C9.17043 15.3068 9.48227 15.5155 9.61674 15.8378C9.68198 15.9948 9.69906 16.1677 9.66583 16.3345C9.6326 16.5012 9.55055 16.6544 9.4301 16.7744L5.98483 20.222H8.84121C9.51936 20.222 10.07 20.7727 10.07 21.4508L10.0688 21.4497ZM32.0562 17.6114C32.0562 16.2899 30.9816 15.2164 29.6612 15.2164C28.9541 15.2164 28.3188 15.5236 27.8795 16.0116C27.6553 15.7613 27.3808 15.5611 27.074 15.4241C26.7672 15.2871 26.4349 15.2163 26.0989 15.2164C24.7773 15.2164 23.7039 16.2899 23.7039 17.6114V21.4497C24.0298 21.4497 24.3423 21.3202 24.5728 21.0897C24.8032 20.8593 24.9327 20.5468 24.9327 20.2209V17.6114C24.9327 17.3019 25.0556 17.0052 25.2744 16.7864C25.4932 16.5675 25.79 16.4446 26.0994 16.4446C26.4089 16.4446 26.7057 16.5675 26.9245 16.7864C27.1433 17.0052 27.2662 17.3019 27.2662 17.6114V20.2209C27.2662 20.9002 27.8157 21.4497 28.495 21.4497V17.6114C28.495 17.3021 28.6179 17.0055 28.8366 16.7868C29.0553 16.5681 29.3519 16.4452 29.6612 16.4452C29.9705 16.4452 30.2671 16.5681 30.4858 16.7868C30.7045 17.0055 30.8274 17.3021 30.8274 17.6114V20.2209C30.8274 20.9002 31.3781 21.4497 32.0562 21.4497V17.6114ZM23.0895 18.3788C23.0895 18.7942 23.0077 19.2055 22.8487 19.5892C22.6897 19.973 22.4568 20.3217 22.163 20.6154C21.8693 20.9091 21.5206 21.1421 21.1369 21.301C20.7531 21.46 20.3418 21.5418 19.9265 21.5418C19.5111 21.5418 19.0998 21.46 18.716 21.301C18.3323 21.1421 17.9836 20.9091 17.6899 20.6154C17.3962 20.3217 17.1632 19.973 17.0042 19.5892C16.8453 19.2055 16.7635 18.7942 16.7635 18.3788C16.7635 17.5399 17.0967 16.7354 17.6899 16.1422C18.2831 15.5491 19.0876 15.2158 19.9265 15.2158C20.7653 15.2158 21.5699 15.5491 22.163 16.1422C22.7562 16.7354 23.0895 17.5399 23.0895 18.3788ZM21.8607 18.3788C21.8607 17.8657 21.6568 17.3736 21.294 17.0107C20.9311 16.6479 20.439 16.444 19.9259 16.444C19.4128 16.444 18.9206 16.6479 18.5578 17.0107C18.195 17.3736 17.9911 17.8657 17.9911 18.3788C17.9911 18.892 18.195 19.3841 18.5578 19.7469C18.9206 20.1098 19.4128 20.3136 19.9259 20.3136C20.439 20.3136 20.9311 20.1098 21.294 19.7469C21.6568 19.3841 21.8607 18.892 21.8607 18.3788ZM16.2731 18.3788C16.2731 18.7943 16.1913 19.2056 16.0323 19.5895C15.8733 19.9733 15.6403 20.322 15.3465 20.6158C15.0528 20.9096 14.704 21.1426 14.3202 21.3016C13.9364 21.4606 13.525 21.5424 13.1095 21.5424C12.6941 21.5424 12.2827 21.4606 11.8989 21.3016C11.5151 21.1426 11.1663 20.9096 10.8726 20.6158C10.5788 20.322 10.3458 19.9733 10.1868 19.5895C10.0278 19.2056 9.94597 18.7943 9.94597 18.3788C9.94597 17.5399 10.2792 16.7354 10.8724 16.1422C11.4656 15.5491 12.2701 15.2158 13.109 15.2158C13.9478 15.2158 14.7524 15.5491 15.3455 16.1422C15.9387 16.7354 16.272 17.5399 16.272 18.3788H16.2731ZM15.0443 18.3788C15.0443 17.8657 14.8405 17.3736 14.4776 17.0107C14.1148 16.6479 13.6227 16.444 13.1095 16.444C12.5964 16.444 12.1043 16.6479 11.7414 17.0107C11.3786 17.3736 11.1748 17.8657 11.1748 18.3788C11.1748 18.892 11.3786 19.3841 11.7414 19.7469C12.1043 20.1098 12.5964 20.3136 13.1095 20.3136C13.6227 20.3136 14.1148 20.1098 14.4776 19.7469C14.8405 19.3841 15.0443 18.892 15.0443 18.3788Z" fill="white" fill-opacity="0.6" shape-rendering="crispEdges"/>
</g>
</g>
<defs>
<filter id="filter0_f_1057_2657" x="4.68728" y="-12.9787" width="26.8071" height="26.8071" filterUnits="userSpaceOnUse" color-interpolation-filters="sRGB">
<feFlood flood-opacity="0" result="BackgroundImageFix"/>
<feBlend mode="normal" in="SourceGraphic" in2="BackgroundImageFix" result="shape"/>
<feGaussianBlur stdDeviation="5.22862" result="effect1_foregroundBlur_1057_2657"/>
</filter>
<filter id="filter1_di_1057_2657" x="-1.49563" y="13.0671" width="39.2823" height="17.7862" filterUnits="userSpaceOnUse" color-interpolation-filters="sRGB">
<feFlood flood-opacity="0" result="BackgroundImageFix"/>
<feColorMatrix in="SourceAlpha" type="matrix" values="0 0 0 0 0 0 0 0 0 0 0 0 0 0 0 0 0 0 127 0" result="hardAlpha"/>
<feOffset dy="3.58125"/>
<feGaussianBlur stdDeviation="2.865"/>
<feComposite in2="hardAlpha" operator="out"/>
<feColorMatrix type="matrix" values="0 0 0 0 0 0 0 0 0 0 0 0 0 0 0 0 0 0 0.07 0"/>
<feBlend mode="normal" in2="BackgroundImageFix" result="effect1_dropShadow_1057_2657"/>
<feBlend mode="normal" in="SourceGraphic" in2="effect1_dropShadow_1057_2657" result="shape"/>
<feColorMatrix in="SourceAlpha" type="matrix" values="0 0 0 0 0 0 0 0 0 0 0 0 0 0 0 0 0 0 127 0" result="hardAlpha"/>
<feOffset dy="0.955"/>
<feGaussianBlur stdDeviation="1.4325"/>
<feComposite in2="hardAlpha" operator="arithmetic" k2="-1" k3="1"/>
<feColorMatrix type="matrix" values="0 0 0 0 1 0 0 0 0 1 0 0 0 0 1 0 0 0 1 0"/>
<feBlend mode="normal" in2="shape" result="effect2_innerShadow_1057_2657"/>
</filter>
<linearGradient id="paint0_linear_1057_2657" x1="18.145" y1="0.234375" x2="18.145" y2="36.5244" gradientUnits="userSpaceOnUse">
<stop stop-color="#0080FD"/>
<stop offset="1" stop-color="#0F34D8"/>
</linearGradient>
<clipPath id="clip0_1057_2657">
<rect y="0.234375" width="36.29" height="36.29" rx="9.55" fill="white"/>
</clipPath>
</defs>
</svg>
